Patient4_TMGait_0pt2_03_right_01_GRF.mot
version=1
nRows=72
nColumns=19
inDegrees=no
endheader
time	F1x	F1y	F1z	M1x	M1y	M1z	F2x	F2y	F2z	M2x	M2y	M2z	EC1x	EC1y	EC1z	EC2x	EC2y	EC2z
1.85	-24.7908	896.7094	51.3548	-296.445	-59.3941	914.3805	2.89	4.1725	1.0455	0.81167	-1.2145	4.3876	-0.0592	0.0182	-0.0073	-0.0462	0.0165	0.9585
1.8725	-24.7377	907.9991	51.9526	-300.1761	-58.9097	923.8056	1.7947	2.9856	0.57984	0.61828	-0.63303	3.1113	-0.0592	0.0182	-0.0073	-0.0462	0.0165	0.9585
1.895	-24.095	916.0451	52.21	-302.9275	-57.7787	929.0563	0.86555	1.9886	0.17392	0.45923	-0.13387	2.0409	-0.0592	0.0182	-0.0073	-0.0462	0.0165	0.9585
1.9175	-22.6388	917.9253	51.9759	-303.7561	-55.8356	927.1799	0.15198	1.2422	-0.14252	0.34302	0.25327	1.2323	-0.0592	0.0182	-0.0073	-0.0462	0.0165	0.9585
1.94	-20.2465	911.3708	51.1738	-301.9073	-53.0207	915.9979	-0.35149	0.74308	-0.36606	0.26781	0.529	0.67903	-0.0592	0.0182	-0.0073	-0.0462	0.0165	0.9585
1.9625	-16.905	895.3905	49.8097	-297.0229	-49.3915	894.712	-0.67773	0.45174	-0.5097	0.22612	0.71188	0.34151	-0.0592	0.0182	-0.0073	-0.0462	0.0165	0.9585
1.985	-12.7058	870.5775	47.9726	-289.2518	-45.1216	864.1711	-0.86707	0.31288	-0.59302	0.20729	0.82504	0.16594	-0.0592	0.0182	-0.0073	-0.0462	0.0165	0.9585
2.0075	-7.828	839.0559	45.81	-279.2475	-40.4682	826.764	-0.95711	0.26653	-0.63592	0.19929	0.88908	0.092505	-0.0592	0.0182	-0.0073	-0.0462	0.0165	0.9585
2.03	-2.5128	804.1121	43.4852	-268.0566	-35.7087	786.0001	-0.98176	0.25106	-0.65643	0.18937	0.92354	0.057263	-0.0592	0.0182	-0.0073	-0.0462	0.0165	0.9585
2.0525	2.9512	769.6178	41.1406	-256.9367	-31.092	745.9043	-0.96982	0.20926	-0.66838	0.16446	0.94468	0.00010696	-0.0592	0.0182	-0.0073	-0.0462	0.0165	0.9585
2.075	8.2569	739.359	38.8727	-247.1388	-26.8037	710.3319	-0.94132	0.089808	-0.67977	0.1115	0.95974	-0.13582	-0.0592	0.0182	-0.0073	-0.0462	0.0165	0.9585
2.0975	13.1182	716.3616	36.7434	-239.6781	-22.966	682.3106	-0.90502	-0.15327	-0.69321	0.01744	0.96954	-0.39943	-0.0592	0.0182	-0.0073	-0.0462	0.0165	0.9585
2.12	17.3028	702.3804	34.816	-235.1554	-19.6683	663.5552	-0.85601	-0.55598	-0.7034	-0.12913	0.96671	-0.82906	-0.0592	0.0182	-0.0073	-0.0462	0.0165	0.9585
2.1425	20.6828	697.7074	33.1865	-233.6853	-16.9891	654.3032	-0.7782	-1.1339	-0.69699	-0.3341	0.93438	-1.4403	-0.0592	0.0182	-0.0073	-0.0462	0.0165	0.9585
2.165	23.2463	701.2738	31.9966	-234.924	-15.0131	653.4534	-0.65216	-1.8647	-0.65398	-0.59197	0.84632	-2.2032	-0.0592	0.0182	-0.0073	-0.0462	0.0165	0.9585
2.1875	25.0591	710.9907	31.4075	-238.1782	-13.8261	658.9279	-0.45646	-2.6717	-0.54642	-0.87837	0.66472	-3.0243	-0.0592	0.0182	-0.0073	-0.0462	0.0165	0.9585
2.21	26.234	724.2453	31.5379	-242.5719	-13.4751	668.1612	-0.16912	-3.3994	-0.34311	-1.1396	0.34827	-3.7285	-0.0592	0.0182	-0.0073	-0.0462	0.0165	0.9585
2.2325	26.9207	738.4448	32.4132	-247.2365	-13.9303	678.6196	0.22413	-3.7797	-0.012239	-1.2825	-0.13896	-4.0263	-0.0592	0.0182	-0.0073	-0.0462	0.0165	0.9585
2.255	27.3013	751.5306	33.9472	-251.4854	-15.0656	688.2832	0.72059	-3.4041	0.47323	-1.1652	-0.81847	-3.4891	-0.0592	0.0182	-0.0073	-0.0462	0.0165	0.9585
2.2775	27.5705	762.1855	35.9856	-254.8818	-16.6952	695.8462	1.2859	-1.7173	1.1274	-0.59457	-1.6854	-1.5415	-0.0592	0.0182	-0.0073	-0.0462	0.0165	0.9585
2.3	27.8788	769.5931	38.3575	-257.1534	-18.6326	700.5105	1.8363	1.9655	1.9316	0.66659	-2.6843	2.5164	-0.0592	0.0182	-0.0073	-0.0462	0.0165	0.9585
2.3225	28.2821	773.1063	40.8825	-258.0832	-20.7135	701.6915	2.2159	8.3962	2.8075	2.8803	-3.6727	9.4425	-0.0592	0.0182	-0.0073	-0.0462	0.0165	0.9585
2.345	28.7089	772.0833	43.363	-257.4545	-22.7943	698.8638	2.1761	18.2497	3.5861	6.2848	-4.3806	19.8963	-0.0592	0.0182	-0.0073	-0.0462	0.0165	0.9585
2.3675	28.9858	765.9654	45.5877	-255.0797	-24.7471	691.6086	1.4014	31.9211	3.9826	11.0224	-4.3991	34.2226	-0.0592	0.0182	-0.0073	-0.0462	0.0165	0.9585
2.39	28.9255	754.4686	47.3475	-250.8691	-26.4478	679.7502	-0.22879	49.4208	3.6555	17.096	-3.3304	52.3492	-0.0592	0.0182	-0.0073	-0.0462	0.0165	0.9585
2.4125	28.4272	737.7313	48.4613	-244.8825	-27.7674	663.4596	-2.4029	70.2334	2.3999	24.3256	-1.0884	73.6443	-0.0592	0.0182	-0.0073	-0.0462	0.0165	0.9585
2.435	27.5235	716.3521	48.8039	-237.3375	-28.5848	643.277	-4.5723	93.2817	0.20884	32.3395	2.1196	96.9059	-0.0592	0.0182	-0.0073	-0.0462	0.0165	0.9585
2.4575	26.346	691.2988	48.3576	-228.5705	-28.844	620.0469	-6.3516	117.2436	-2.6612	40.6914	5.8764	120.7371	-0.0592	0.0182	-0.0073	-0.0462	0.0165	0.9585
2.48	25.0779	663.7313	47.2294	-218.9715	-28.5835	594.7747	-7.6198	141.0921	-5.7138	49.0514	9.6214	144.1083	-0.0592	0.0182	-0.0073	-0.0462	0.0165	0.9585
2.5025	23.9148	634.824	45.6045	-208.927	-27.9019	568.475	-8.4135	164.5101	-8.4273	57.3401	12.8347	166.748	-0.0592	0.0182	-0.0073	-0.0462	0.0165	0.9585
2.525	22.9991	605.5015	43.6943	-198.735	-26.9335	541.9577	-8.8257	187.9681	-10.5402	65.7349	15.2886	189.192	-0.0592	0.0182	-0.0073	-0.0462	0.0165	0.9585
2.5475	22.3681	576.137	41.6865	-188.5146	-25.8192	515.5679	-8.9345	212.3167	-12.1353	74.5203	17.0979	212.3512	-0.0592	0.0182	-0.0073	-0.0462	0.0165	0.9585
2.57	21.9789	546.49	39.6789	-178.1945	-24.641	489.1124	-8.7842	238.3064	-13.5004	83.9297	18.573	237.011	-0.0592	0.0182	-0.0073	-0.0462	0.0165	0.9585
2.5925	21.7724	515.9907	37.6558	-167.6114	-23.3852	462.0824	-8.402	266.296	-14.9231	94.0591	20.0223	263.5398	-0.0592	0.0182	-0.0073	-0.0462	0.0165	0.9585
2.615	21.7062	484.1175	35.5208	-156.6321	-21.9633	433.9825	-7.8151	296.1968	-16.5734	104.8574	21.6347	291.8452	-0.0592	0.0182	-0.0073	-0.0462	0.0165	0.9585
2.6375	21.7496	450.6236	33.1595	-145.2209	-20.2675	404.5369	-7.0517	327.6008	-18.5008	116.1713	23.4675	321.515	-0.0592	0.0182	-0.0073	-0.0462	0.0165	0.9585
2.66	21.8562	415.5359	30.5023	-133.4249	-18.2365	373.7011	-6.1359	359.997	-20.6738	127.8154	25.4845	352.0284	-0.0592	0.0182	-0.0073	-0.0462	0.0165	0.9585
2.6825	21.9288	378.9905	27.5585	-121.3089	-15.9028	341.5378	-5.096	392.9725	-23.0288	139.6395	27.612	382.9644	-0.0592	0.0182	-0.0073	-0.0462	0.0165	0.9585
2.705	21.7907	341.0859	24.4063	-108.9013	-13.3956	308.0985	-3.9888	426.3775	-25.5214	151.5808	29.8073	414.1756	-0.0592	0.0182	-0.0073	-0.0462	0.0165	0.9585
2.7275	21.2107	301.881	21.1621	-96.1989	-10.9014	273.4157	-2.9124	460.4717	-28.1784	163.7103	32.1179	445.9348	-0.0592	0.0182	-0.0073	-0.0462	0.0165	0.9585
2.75	19.9723	261.4761	17.9561	-83.2026	-8.6192	237.5585	-2.0088	495.8802	-31.1303	176.2103	34.7152	478.8964	-0.0592	0.0182	-0.0073	-0.0462	0.0165	0.9585
2.7725	17.9533	220.2	14.8927	-69.9857	-6.697	200.7888	-1.4685	533.2803	-34.571	189.2683	37.8589	513.7993	-0.0592	0.0182	-0.0073	-0.0462	0.0165	0.9585
2.795	15.1742	178.8649	12.0298	-56.7822	-5.1919	163.7995	-1.5296	572.9537	-38.6429	202.9331	41.7823	551.0349	-0.0592	0.0182	-0.0073	-0.0462	0.0165	0.9585
2.8175	11.8296	138.889	9.4023	-44.0308	-4.077	127.8374	-2.4338	614.4017	-43.3306	217	46.5704	590.2529	-0.0592	0.0182	-0.0073	-0.0462	0.0165	0.9585
2.84	8.2932	102.0919	7.0512	-32.3065	-3.2649	94.5356	-4.3309	656.2717	-48.4097	231.0043	52.072	630.2544	-0.0592	0.0182	-0.0073	-0.0462	0.0165	0.9585
2.8625	5.0086	70.1355	5.0192	-22.1392	-2.6418	65.4153	-7.1862	696.7433	-53.4712	244.3685	57.8898	669.3119	-0.0592	0.0182	-0.0073	-0.0462	0.0165	0.9585
2.885	2.3242	44.0822	3.3333	-13.8672	-2.1095	41.4959	-10.7735	734.191	-58.0308	256.6259	63.4728	705.7762	-0.0592	0.0182	-0.0073	-0.0462	0.0165	0.9585
2.9075	0.42192	24.2824	2.007	-7.5978	-1.6193	23.1758	-14.7341	767.648	-61.6606	267.5576	68.2609	738.5376	-0.0592	0.0182	-0.0073	-0.0462	0.0165	0.9585
2.93	-0.70466	10.4327	1.0393	-3.228	-1.1757	10.2551	-18.6395	796.7965	-64.0823	277.1558	71.7988	767.0575	-0.0592	0.0182	-0.0073	-0.0462	0.0165	0.9585
2.9525	-1.2307	1.7151	0.40408	-0.49118	-0.81443	2.0418	-22.0464	821.5544	-65.2249	285.4476	73.8205	791.0293	-0.0592	0.0182	-0.0073	-0.0462	0.0165	0.9585
2.975	-1.3588	-3.004	0.042774	0.97591	-0.55372	-2.4665	-24.5887	841.5952	-65.2207	292.3155	74.2917	809.9863	-0.0592	0.0182	-0.0073	-0.0462	0.0165	0.9585
2.9975	-1.2527	-4.9015	-0.11599	1.5487	-0.38835	-4.3323	-26.0521	856.2102	-64.3152	297.4627	73.3588	823.1997	-0.0592	0.0182	-0.0073	-0.0462	0.0165	0.9585
3.02	-1.0352	-5.017	-0.13988	1.5575	-0.30072	-4.5098	-26.3745	864.5515	-62.76	300.523	71.2443	829.897	-0.0592	0.0182	-0.0073	-0.0462	0.0165	0.9585
3.0425	-0.79089	-4.1722	-0.084364	1.2633	-0.27019	-3.7674	-25.5868	866.0474	-60.7533	301.2305	68.1699	829.6098	-0.0592	0.0182	-0.0073	-0.0462	0.0165	0.9585
3.065	-0.5682	-2.9616	0.0075039	0.85613	-0.27572	-2.6699	-23.7698	860.7507	-58.4338	299.5535	64.3325	822.4707	-0.0592	0.0182	-0.0073	-0.0462	0.0165	0.9585
3.0875	-0.38791	-1.7849	0.10413	0.46526	-0.29811	-1.6034	-21.0513	849.4185	-55.9	295.7258	59.9158	809.2791	-0.0592	0.0182	-0.0073	-0.0462	0.0165	0.9585
3.11	-0.25392	-0.89124	0.18545	0.17181	-0.32215	-0.81318	-17.5955	833.371	-53.247	290.1961	55.1179	791.3544	-0.0592	0.0182	-0.0073	-0.0462	0.0165	0.9585
3.1325	-0.16017	-0.4236	0.23937	0.022116	-0.33287	-0.44276	-13.5581	814.2554	-50.5852	283.5419	50.1463	770.2925	-0.0592	0.0182	-0.0073	-0.0462	0.0165	0.9585
3.155	-0.091015	-0.44997	0.25614	0.039015	-0.31448	-0.56224	-9.078	793.7665	-48.0321	276.368	45.2017	747.7039	-0.0592	0.0182	-0.0073	-0.0462	0.0165	0.9585
3.1775	-0.025607	-0.97696	0.22671	0.22762	-0.24971	-1.1841	-4.275	773.4598	-45.6916	269.2387	40.456	725.0511	-0.0592	0.0182	-0.0073	-0.0462	0.0165	0.9585
3.2	0.060603	-1.9465	0.14545	0.57181	-0.12426	-2.2556	0.73966	754.7164	-43.6635	262.6588	36.0615	703.627	-0.0592	0.0182	-0.0073	-0.0462	0.0165	0.9585
3.2225	0.19375	-3.2195	0.0090183	1.0253	0.07296	-3.6293	5.8469	738.7314	-42.0587	257.0617	32.1699	684.5619	-0.0592	0.0182	-0.0073	-0.0462	0.0165	0.9585
3.245	0.39417	-4.5392	-0.18474	1.5007	0.34994	-5.0293	10.9105	726.4423	-40.9891	252.7805	28.9252	668.7741	-0.0592	0.0182	-0.0073	-0.0462	0.0165	0.9585
3.2675	0.67109	-5.4829	-0.43014	1.8545	0.70172	-6.0067	15.7675	718.3988	-40.5548	250.0024	26.4585	656.8624	-0.0592	0.0182	-0.0073	-0.0462	0.0165	0.9585
3.29	1.0181	-5.4168	-0.7016	1.8703	1.0989	-5.8831	20.2284	714.6568	-40.8171	248.7344	24.8691	649.0099	-0.0592	0.0182	-0.0073	-0.0462	0.0165	0.9585
3.3125	1.4038	-3.4624	-0.94727	1.2483	1.4753	-3.7141	24.0841	714.7232	-41.7686	248.7869	24.1972	644.9303	-0.0592	0.0182	-0.0073	-0.0462	0.0165	0.9585
3.335	1.7545	1.4947	-1.0823	-0.39271	1.7131	1.6949	27.106	717.5205	-43.3236	249.7648	24.4206	643.8255	-0.0592	0.0182	-0.0073	-0.0462	0.0165	0.9585
3.3575	1.9419	10.7255	-0.98056	-3.4887	1.6279	11.702	29.0879	721.4544	-45.31	251.0964	25.4378	644.4203	-0.0592	0.0182	-0.0073	-0.0462	0.0165	0.9585
3.38	1.774	25.4657	-0.46766	-8.4659	0.95841	27.6169	29.903	724.5889	-47.4639	252.1002	27.0495	645.0767	-0.0592	0.0182	-0.0073	-0.0462	0.0165	0.9585
3.4025	0.98834	46.567	0.67567	-15.6246	-0.62918	50.3241	29.5572	724.8363	-49.4439	252.0529	28.9503	643.9442	-0.0592	0.0182	-0.0073	-0.0462	0.0165	0.9585
3.425	-0.70287	73.9889	2.6793	-24.9665	-3.4844	79.7417	28.1816	720.0964	-50.8779	250.2364	30.7701	639.0936	-0.0592	0.0182	-0.0073	-0.0462	0.0165	0.9585
3.4475	-3.3352	106.307	5.673	-36.0157	-7.7601	114.3051	25.9914	708.5005	-51.4351	246.0172	32.1491	628.7526	-0.0592	0.0182	-0.0073	-0.0462	0.0165	0.9585
